<svg width="512" height="512" viewBox="0 0 512 512" fill="none" xmlns="http://www.w3.org/2000/svg">
<path fill-rule="evenodd" clip-rule="evenodd" d="M443.434 190.613V266.212C441.192 265.186 438.874 264.252 436.486 263.394C431.43 261.579 426.284 260.94 421.531 260.885C399.403 260.626 379.163 260.206 359.308 258.548L359.308 190.613C359.308 170.471 375.636 154.143 395.779 154.143H406.964C427.106 154.143 443.434 170.471 443.434 190.613ZM339.308 190.613L339.308 256.409C322.88 254.237 306.367 250.959 288.908 245.959C284.27 244.631 278.557 243.478 272.443 244.168C266.35 244.855 260.555 246.372 255.182 248.615V190.613V169.788C255.182 149.646 271.51 133.318 291.652 133.318H302.838C322.98 133.318 339.308 149.646 339.308 169.788L339.308 190.613ZM235.182 190.613V262.292C225.169 272.765 219.082 287.014 219.008 303.297C218.563 311.701 221.486 318.97 226.141 325.15C219.446 332.785 209.638 337.583 198.712 337.583H187.526C167.384 337.583 151.056 321.255 151.056 301.113V190.613C151.056 170.471 167.384 154.143 187.526 154.143H198.712C218.854 154.143 235.182 170.471 235.182 190.613ZM198.712 357.583C215.491 357.583 230.557 350.259 240.89 338.662C245.012 341.454 249.585 344.044 254.461 346.441C247.9 353.514 242.27 361.494 237.907 370.971C231.307 385.309 227.908 402.421 227.908 423.93C227.908 429.453 232.386 433.93 237.908 433.93C243.431 433.93 247.908 429.453 247.908 423.93C247.908 404.533 250.969 390.427 256.075 379.334C260.469 369.789 266.599 361.99 274.445 354.749C277.553 355.852 280.7 356.895 283.855 357.881C316.134 367.971 352.565 373.023 368.137 373.023C373.66 373.023 378.137 368.545 378.137 363.023C378.137 357.5 373.66 353.023 368.137 353.023C354.955 353.023 320.554 348.398 289.822 338.792C274.462 333.991 260.808 328.181 251.355 321.586C241.612 314.79 238.69 308.925 238.987 304.228L239.007 303.913V303.597C239.007 282.311 253.966 266.378 274.685 264.042C277.041 263.776 279.844 264.168 283.401 265.186C331.729 279.026 373.165 280.321 421.297 280.883C424.485 280.921 427.308 281.349 429.727 282.218C437.193 284.899 442.732 288.124 446.987 292.217C451.2 296.269 454.621 301.619 457.206 309.242C462.538 324.965 463.996 349.253 461.827 388.446C458.538 413.778 445.197 443.167 413.435 466.435C381.398 489.904 329.814 507.714 249.205 507.714C168.325 507.714 117.867 491.198 87.79 467.304C58.1129 443.728 46.9297 411.874 46.9297 377.538V46.3495C46.9297 23.1187 65.762 4.28642 88.9928 4.28642C112.224 4.28642 131.056 23.1187 131.056 46.3495V190.613V301.113C131.056 332.301 156.339 357.583 187.526 357.583H198.712Z" fill="#FF1F8F"/>
</svg>
